<svg version="1.1" xmlns="http://www.w3.org/2000/svg" xmlns:xlink="http://www.w3.org/1999/xlink" width="49.5" height="49.08228" viewBox="0,0,49.5,49.08228"><g transform="translate(-215.25,-155.45886)"><g data-paper-data="{&quot;isPaintingLayer&quot;:true}" fill-rule="nonzero" stroke="none" stroke-linecap="butt" stroke-linejoin="miter" stroke-miterlimit="10" stroke-dasharray="" stroke-dashoffset="0" style="mix-blend-mode: normal"><path d="M215.25,204.54114v-49.08228h49.5v49.08228z" fill-opacity="0" fill="#9966ff" stroke-width="0"/><path d="M233.10835,176.19167c0.2,-1.4 0.5,-2.8 0.7,-4.2c0.4,-2 0.3,-4 0.1,-6c0,-0.5 -0.1,-1 -0.1,-1.5c0,-0.4 0.2,-0.7 0.6,-0.9c0.6,-0.3 1.1,-0.5 1.5,-1.1c0.1,-0.2 0.5,-0.4 0.8,-0.4c1.4,-0.2 2.8,-0.3 4.1,-0.3c1.1,0 2.3,0.2 3.4,0.4c0.4,0.1 0.7,0.3 1,0.7c0.2,0.3 0.6,0.5 1,0.7c0.8,0.3 0.9,0.8 0.8,1.5c-0.1,1.5 -0.2,2.9 -0.2,4.4c0.1,1.5 0.3,2.9 0.5,4.4c0.3,2 0.7,3.9 0.8,5.9c0.4,5.6 1.1,18.5 1.1,19.3c0,0.7 -0.5,1 -1.1,1.2c-1.7,0.6 -7.2,0.7 -7.9,0.7c-0.7,0 -7,-0.5 -7.7,-0.7c-1.1,-0.4 -1.2,-0.6 -1.1,-1.5c0.3,-2.6 1,-17.7 1.7,-22.6z" fill="#181818" stroke-width="1"/><path d="M244.76317,162.32165c0,0.42148 -1.97937,0.76316 -4.42105,0.76316c-2.44168,0 -4.42105,-0.34168 -4.42105,-0.76316c0,-0.42148 1.97937,-0.76316 4.42105,-0.76316c2.44168,0 4.42105,0.34168 4.42105,0.76316z" fill="#232323" stroke-width="0"/></g></g></svg>